<svg xmlns="http://www.w3.org/2000/svg" xmlns:xlink="http://www.w3.org/1999/xlink" width="500" zoomAndPan="magnify" viewBox="0 0 375 374.999991" height="500" preserveAspectRatio="xMidYMid meet" version="1.0"><defs><g/><clipPath id="c9a7c67d3d"><path d="M 187.5 0 C 83.945312 0 0 83.945312 0 187.5 C 0 291.054688 83.945312 375 187.5 375 C 291.054688 375 375 291.054688 375 187.5 C 375 83.945312 291.054688 0 187.5 0 Z M 187.5 0 " clip-rule="nonzero"/></clipPath></defs><g clip-path="url(#c9a7c67d3d)"><rect x="-37.5" width="450" fill="#545454" y="-37.499999" height="449.999989" fill-opacity="1"/></g><g fill="#f1efe7" fill-opacity="1"><g transform="translate(120.287002, 264.21213)"><g><path d="M 72.796875 -168 C 81.734375 -168 90.46875 -166.695312 99 -164.09375 C 107.53125 -161.5 113.863281 -158.9375 118 -156.40625 L 124 -152.40625 L 108.796875 -122.40625 C 107.597656 -123.195312 105.929688 -124.226562 103.796875 -125.5 C 101.660156 -126.769531 97.660156 -128.46875 91.796875 -130.59375 C 85.929688 -132.726562 80.46875 -133.796875 75.40625 -133.796875 C 69.132812 -133.796875 64.296875 -132.460938 60.890625 -129.796875 C 57.492188 -127.128906 55.796875 -123.53125 55.796875 -119 C 55.796875 -116.726562 56.59375 -114.625 58.1875 -112.6875 C 59.789062 -110.757812 62.523438 -108.695312 66.390625 -106.5 C 70.265625 -104.300781 73.664062 -102.535156 76.59375 -101.203125 C 79.53125 -99.867188 84.066406 -97.867188 90.203125 -95.203125 C 100.867188 -90.671875 109.96875 -84.503906 117.5 -76.703125 C 125.03125 -68.898438 128.796875 -60.066406 128.796875 -50.203125 C 128.796875 -40.734375 127.09375 -32.460938 123.6875 -25.390625 C 120.289062 -18.328125 115.625 -12.796875 109.6875 -8.796875 C 103.757812 -4.796875 97.195312 -1.832031 90 0.09375 C 82.800781 2.03125 75 3 66.59375 3 C 59.394531 3 52.328125 2.265625 45.390625 0.796875 C 38.460938 -0.671875 32.664062 -2.503906 28 -4.703125 C 23.332031 -6.898438 19.128906 -9.066406 15.390625 -11.203125 C 11.660156 -13.335938 8.929688 -15.132812 7.203125 -16.59375 L 4.59375 -18.796875 L 23.40625 -50.40625 C 25 -49.070312 27.195312 -47.367188 30 -45.296875 C 32.800781 -43.234375 37.765625 -40.46875 44.890625 -37 C 52.023438 -33.53125 58.328125 -31.796875 63.796875 -31.796875 C 79.660156 -31.796875 87.59375 -37.195312 87.59375 -48 C 87.59375 -50.269531 87.023438 -52.367188 85.890625 -54.296875 C 84.765625 -56.234375 82.765625 -58.164062 79.890625 -60.09375 C 77.023438 -62.03125 74.492188 -63.566406 72.296875 -64.703125 C 70.097656 -65.835938 66.5 -67.570312 61.5 -69.90625 C 56.5 -72.238281 52.800781 -74.003906 50.40625 -75.203125 C 40.40625 -80.128906 32.671875 -86.289062 27.203125 -93.6875 C 21.734375 -101.09375 19 -109.0625 19 -117.59375 C 19 -132.394531 24.460938 -144.492188 35.390625 -153.890625 C 46.328125 -163.296875 58.796875 -168 72.796875 -168 Z M 72.796875 -168 "/></g></g></g></svg>